<svg id="Capa_1" data-name="Capa 1" xmlns="http://www.w3.org/2000/svg" viewBox="0 0 50 32"><defs><style>.cls-1{fill:#fff;}.cls-2{fill:#e99700;}</style></defs><path d="M140.07,104H99.93A5,5,0,0,0,95,109v22a5,5,0,0,0,4.93,5h40.14a5,5,0,0,0,4.93-5V109A5,5,0,0,0,140.07,104Z" transform="translate(-95 -104)"/><path class="cls-1" d="M110.13,119.94a2.37,2.37,0,0,1-.67,1.62L102,129.12a2.29,2.29,0,0,1-3.24,0,2.37,2.37,0,0,1,0-3.28l5.81-5.88-5.81-5.88a2.38,2.38,0,0,1,0-3.29,2.29,2.29,0,0,1,3.24,0l7.14,7.23.33.33a2.4,2.4,0,0,1,.67,1.63Z" transform="translate(-95 -104)"/><path class="cls-2" d="M127.73,127.63H112.27a2.16,2.16,0,0,0,0,4.32h15.46a2.16,2.16,0,0,0,0-4.32Z" transform="translate(-95 -104)"/></svg>